<?xml version="1.0" encoding="utf-8"?>
<svg version="1.1" xmlns="http://www.w3.org/2000/svg" viewBox="-2.71558 -0.765 3.45115 0.88">
	<defs>
		<marker id="secArrow-orange" markerWidth="3" markerHeight="4" refX="3" refY="2" orient="auto">
			<path d="M3,2 L0,4 L0,0 L3,2" fill="orange" style="stroke:none;fill-opacity:0.5"/>
		</marker>
	</defs>
	<g>
		<g id="segments">
			<g id="sg_layout">
				<g id="gsg_Seg_A_1">
					<polygon id="pgsg_Seg_A_1" points="0,-0 -0.0825,-0 -0.165,-0 -0.2475,-0 -0.33,-0 -0.4125,-0 -0.495,-0 -0.5775,-0 -0.66,-0 -0.66,-0.094 0,-0.094 " style="fill:#eee;stroke:darkgrey;stroke-width:0.005"/>
					<polyline id="plsg_Seg_A_1" points="0,-0 -0.0825,-0 -0.165,-0 -0.2475,-0 -0.33,-0 -0.4125,-0 -0.495,-0 -0.5775,-0 -0.66,-0 " style="fill:#eee;stroke:black;stroke-width:0.010"/>
					<polygon id="bsg_Seg_A_1" points="-0.02,-0.0188 -0.02,-0.0752 -0.04,-0.047 " style="fill:#ccc;stroke-width:0"/>
					<text id="tsg_Seg_A_1" x="-0.33000000000000002" y="-0.032899999999999999" text-anchor="middle" font-size="0.040000000000000001" style="fill:darkgrey">0</text>
				</g>
				<g id="gsg_Seg_A_2">
					<polygon id="pgsg_Seg_A_2" points="-0.66,-0 -0.7425,-0 -0.825,-0 -0.9075,-2.46519e-32 -0.99,-0 -1.0725,-0 -1.155,-2.46519e-32 -1.2375,-0 -1.32,-0 -1.32,-0.094 -0.66,-0.094 " style="fill:#eee;stroke:darkgrey;stroke-width:0.005"/>
					<polyline id="plsg_Seg_A_2" points="-0.66,-0 -0.7425,-0 -0.825,-0 -0.9075,-2.46519e-32 -0.99,-0 -1.0725,-0 -1.155,-2.46519e-32 -1.2375,-0 -1.32,-0 " style="fill:#eee;stroke:black;stroke-width:0.010"/>
					<polygon id="bsg_Seg_A_2" points="-0.68,-0.0188 -0.68,-0.0752 -0.7,-0.047 " style="fill:#ccc;stroke-width:0"/>
					<text id="tsg_Seg_A_2" x="-0.98999999999999999" y="-0.032899999999999999" text-anchor="middle" font-size="0.040000000000000001" style="fill:darkgrey">1</text>
				</g>
				<g id="gsg_Seg_A_3">
					<polygon id="pgsg_Seg_A_3" points="-1.32,-0 -1.4025,-0 -1.485,-0 -1.5675,-0 -1.65,-0 -1.7325,2.46519e-32 -1.815,-4.93038e-32 -1.8975,-4.93038e-32 -1.98,-0 -1.98,-0.094 -1.32,-0.094 " style="fill:#eee;stroke:darkgrey;stroke-width:0.005"/>
					<polyline id="plsg_Seg_A_3" points="-1.32,-0 -1.4025,-0 -1.485,-0 -1.5675,-0 -1.65,-0 -1.7325,2.46519e-32 -1.815,-4.93038e-32 -1.8975,-4.93038e-32 -1.98,-0 " style="fill:#eee;stroke:black;stroke-width:0.010"/>
					<polygon id="bsg_Seg_A_3" points="-1.34,-0.0188 -1.34,-0.0752 -1.36,-0.047 " style="fill:#ccc;stroke-width:0"/>
					<text id="tsg_Seg_A_3" x="-1.6500000000000001" y="-0.032899999999999999" text-anchor="middle" font-size="0.040000000000000001" style="fill:darkgrey">2</text>
				</g>
				<g id="gsg_Seg_A_4">
					<polygon id="pgsg_Seg_A_4" points="-1.98,-0 -2.03633,-4.93038e-32 -2.09266,-3.66468e-08 -2.14899,-4.17485e-05 -2.20532,-0.000445667 -2.26162,-0.00204462 -2.31778,-0.00636484 -2.3733,-0.0156942 -2.42694,-0.0326832 -2.39097,-0.119528 -1.98,-0.094 " style="fill:#eee;stroke:darkgrey;stroke-width:0.005"/>
					<polyline id="plsg_Seg_A_4" points="-1.98,-0 -2.03633,-4.93038e-32 -2.09266,-3.66468e-08 -2.14899,-4.17485e-05 -2.20532,-0.000445667 -2.26162,-0.00204462 -2.31778,-0.00636484 -2.3733,-0.0156942 -2.42694,-0.0326832 " style="fill:#eee;stroke:black;stroke-width:0.010"/>
					<polygon id="bsg_Seg_A_4" points="-2,-0.0188 -2,-0.0752 -2.02,-0.047 " style="fill:#ccc;stroke-width:0"/>
					<text id="tsg_Seg_A_4" x="-2.2046431036894925" y="-0.033340803501309565" text-anchor="middle" font-size="0.040000000000000001" style="fill:darkgrey">3</text>
				</g>
				<g id="gsg_Seg_A_5">
					<polygon id="pgsg_Seg_A_5" points="-2.42694,-0.0326832 -2.45405,-0.0455047 -2.47977,-0.0609216 -2.50386,-0.0787854 -2.52608,-0.0989241 -2.54621,-0.121144 -2.56408,-0.14523 -2.5795,-0.170952 -2.59232,-0.198061 -2.48748,-0.241486 -2.38351,-0.137523 " style="fill:#eee;stroke:darkgrey;stroke-width:0.005"/>
					<polyline id="plsg_Seg_A_5" points="-2.42694,-0.0326832 -2.45405,-0.0455047 -2.47977,-0.0609216 -2.50386,-0.0787854 -2.52608,-0.0989241 -2.54621,-0.121144 -2.56408,-0.14523 -2.5795,-0.170952 -2.59232,-0.198061 " style="fill:#eee;stroke:black;stroke-width:0.010"/>
					<polygon id="bsg_Seg_A_5" points="-2.43673,-0.0613047 -2.41068,-0.124208 -2.44218,-0.10041 " style="fill:#ccc;stroke-width:0"/>
					<text id="tsg_Seg_A_5" x="-2.4859556532740923" y="-0.12202276087590791" text-anchor="middle" font-size="0.040000000000000001" style="fill:darkgrey">4</text>
				</g>
				<g id="gsg_Seg_A_6">
					<polygon id="pgsg_Seg_A_6" points="-2.59232,-0.198061 -2.60242,-0.226296 -2.60971,-0.255385 -2.61411,-0.285048 -2.61558,-0.315 -2.61411,-0.344952 -2.60971,-0.374615 -2.60242,-0.403704 -2.59232,-0.431939 -2.48748,-0.388514 -2.48748,-0.241486 " style="fill:#eee;stroke:darkgrey;stroke-width:0.005"/>
					<polyline id="plsg_Seg_A_6" points="-2.59232,-0.198061 -2.60242,-0.226296 -2.60971,-0.255385 -2.61411,-0.285048 -2.61558,-0.315 -2.61411,-0.344952 -2.60971,-0.374615 -2.60242,-0.403704 -2.59232,-0.431939 " style="fill:#eee;stroke:black;stroke-width:0.010"/>
					<polygon id="bsg_Seg_A_6" points="-2.579,-0.225223 -2.5161,-0.251279 -2.5552,-0.256729 " style="fill:#ccc;stroke-width:0"/>
					<text id="tsg_Seg_A_6" x="-2.5588388712364392" y="-0.29797841415000004" text-anchor="middle" font-size="0.040000000000000001" style="fill:darkgrey">5</text>
				</g>
				<g id="gsg_Seg_A_7">
					<polygon id="pgsg_Seg_A_7" points="-2.59232,-0.431939 -2.5795,-0.459048 -2.56408,-0.48477 -2.54621,-0.508856 -2.52608,-0.531076 -2.50386,-0.551215 -2.47977,-0.569078 -2.45405,-0.584495 -2.42694,-0.597317 -2.38351,-0.492477 -2.48748,-0.388514 " style="fill:#eee;stroke:darkgrey;stroke-width:0.005"/>
					<polyline id="plsg_Seg_A_7" points="-2.59232,-0.431939 -2.5795,-0.459048 -2.56408,-0.48477 -2.54621,-0.508856 -2.52608,-0.531076 -2.50386,-0.551215 -2.47977,-0.569078 -2.45405,-0.584495 -2.42694,-0.597317 " style="fill:#eee;stroke:black;stroke-width:0.010"/>
					<polygon id="bsg_Seg_A_7" points="-2.5637,-0.441732 -2.50079,-0.415676 -2.52459,-0.447182 " style="fill:#ccc;stroke-width:0"/>
					<text id="tsg_Seg_A_7" x="-2.4859556532740918" y="-0.47393406742409222" text-anchor="middle" font-size="0.040000000000000001" style="fill:darkgrey">6</text>
				</g>
				<g id="gsg_Seg_A_8">
					<polygon id="pgsg_Seg_A_8" points="-2.42694,-0.597317 -2.3733,-0.614306 -2.31778,-0.623635 -2.26162,-0.627955 -2.20532,-0.629554 -2.14899,-0.629958 -2.09266,-0.63 -2.03633,-0.63 -1.98,-0.63 -1.98,-0.536 -2.39097,-0.510472 " style="fill:#eee;stroke:darkgrey;stroke-width:0.005"/>
					<polyline id="plsg_Seg_A_8" points="-2.42694,-0.597317 -2.3733,-0.614306 -2.31778,-0.623635 -2.26162,-0.627955 -2.20532,-0.629554 -2.14899,-0.629958 -2.09266,-0.63 -2.03633,-0.63 -1.98,-0.63 " style="fill:#eee;stroke:black;stroke-width:0.010"/>
					<polygon id="bsg_Seg_A_8" points="-2.40127,-0.587602 -2.37968,-0.535495 -2.372,-0.569202 " style="fill:#ccc;stroke-width:0"/>
					<text id="tsg_Seg_A_8" x="-2.2046431036894925" y="-0.56845919649869059" text-anchor="middle" font-size="0.040000000000000001" style="fill:darkgrey">7</text>
				</g>
				<g id="gsg_Seg_A_9">
					<polygon id="pgsg_Seg_A_9" points="-1.98,-0.63 -1.8975,-0.63 -1.815,-0.63 -1.7325,-0.63 -1.65,-0.63 -1.5675,-0.63 -1.485,-0.63 -1.4025,-0.63 -1.32,-0.63 -1.32,-0.536 -1.98,-0.536 " style="fill:#eee;stroke:darkgrey;stroke-width:0.005"/>
					<polyline id="plsg_Seg_A_9" points="-1.98,-0.63 -1.8975,-0.63 -1.815,-0.63 -1.7325,-0.63 -1.65,-0.63 -1.5675,-0.63 -1.485,-0.63 -1.4025,-0.63 -1.32,-0.63 " style="fill:#eee;stroke:black;stroke-width:0.010"/>
					<polygon id="bsg_Seg_A_9" points="-1.96,-0.6112 -1.96,-0.5548 -1.94,-0.583 " style="fill:#ccc;stroke-width:0"/>
					<text id="tsg_Seg_A_9" x="-1.6499999999999999" y="-0.56890000000000007" text-anchor="middle" font-size="0.040000000000000001" style="fill:darkgrey">8</text>
				</g>
				<g id="gsg_Seg_A_10">
					<polygon id="pgsg_Seg_A_10" points="-1.32,-0.63 -1.2375,-0.63 -1.155,-0.63 -1.0725,-0.63 -0.99,-0.63 -0.9075,-0.63 -0.825,-0.63 -0.7425,-0.63 -0.66,-0.63 -0.66,-0.536 -1.32,-0.536 " style="fill:#eee;stroke:darkgrey;stroke-width:0.005"/>
					<polyline id="plsg_Seg_A_10" points="-1.32,-0.63 -1.2375,-0.63 -1.155,-0.63 -1.0725,-0.63 -0.99,-0.63 -0.9075,-0.63 -0.825,-0.63 -0.7425,-0.63 -0.66,-0.63 " style="fill:#eee;stroke:black;stroke-width:0.010"/>
					<polygon id="bsg_Seg_A_10" points="-1.3,-0.6112 -1.3,-0.5548 -1.28,-0.583 " style="fill:#ccc;stroke-width:0"/>
					<text id="tsg_Seg_A_10" x="-0.99000000000000021" y="-0.56890000000000007" text-anchor="middle" font-size="0.040000000000000001" style="fill:darkgrey">9</text>
				</g>
				<g id="gsg_Seg_A_11">
					<polygon id="pgsg_Seg_A_11" points="-0.66,-0.63 -0.5775,-0.63 -0.495,-0.63 -0.4125,-0.63 -0.33,-0.63 -0.2475,-0.63 -0.165,-0.63 -0.0825,-0.63 -1.88175e-16,-0.63 -1.82957e-16,-0.536 -0.66,-0.536 " style="fill:#eee;stroke:darkgrey;stroke-width:0.005"/>
					<polyline id="plsg_Seg_A_11" points="-0.66,-0.63 -0.5775,-0.63 -0.495,-0.63 -0.4125,-0.63 -0.33,-0.63 -0.2475,-0.63 -0.165,-0.63 -0.0825,-0.63 -1.88175e-16,-0.63 " style="fill:#eee;stroke:black;stroke-width:0.010"/>
					<polygon id="bsg_Seg_A_11" points="-0.64,-0.6112 -0.64,-0.5548 -0.62,-0.583 " style="fill:#ccc;stroke-width:0"/>
					<text id="tsg_Seg_A_11" x="-0.33000000000000013" y="-0.56890000000000018" text-anchor="middle" font-size="0.040000000000000001" style="fill:darkgrey">10</text>
				</g>
				<g id="gsg_Seg_A_12">
					<polygon id="pgsg_Seg_A_12" points="-2.22045e-16,-0.63 0.0563303,-0.63 0.112661,-0.63 0.168991,-0.629958 0.225319,-0.629554 0.281624,-0.627955 0.337778,-0.623635 0.393299,-0.614306 0.446939,-0.597317 0.410967,-0.510472 -2.16827e-16,-0.536 " style="fill:#eee;stroke:darkgrey;stroke-width:0.005"/>
					<polyline id="plsg_Seg_A_12" points="-2.22045e-16,-0.63 0.0563303,-0.63 0.112661,-0.63 0.168991,-0.629958 0.225319,-0.629554 0.281624,-0.627955 0.337778,-0.623635 0.393299,-0.614306 0.446939,-0.597317 " style="fill:#eee;stroke:black;stroke-width:0.010"/>
					<polygon id="bsg_Seg_A_12" points="0.02,-0.6112 0.02,-0.5548 0.04,-0.583 " style="fill:#ccc;stroke-width:0"/>
					<text id="tsg_Seg_A_12" x="0.22464310368949209" y="-0.56845919649869048" text-anchor="middle" font-size="0.040000000000000001" style="fill:darkgrey">11</text>
				</g>
				<g id="gsg_Seg_A_13">
					<polygon id="pgsg_Seg_A_13" points="0.446939,-0.597317 0.474048,-0.584495 0.49977,-0.569078 0.523856,-0.551215 0.546076,-0.531076 0.566215,-0.508856 0.584078,-0.48477 0.599495,-0.459048 0.612317,-0.431939 0.507477,-0.388514 0.403514,-0.492477 " style="fill:#eee;stroke:darkgrey;stroke-width:0.005"/>
					<polyline id="plsg_Seg_A_13" points="0.446939,-0.597317 0.474048,-0.584495 0.49977,-0.569078 0.523856,-0.551215 0.546076,-0.531076 0.566215,-0.508856 0.584078,-0.48477 0.599495,-0.459048 0.612317,-0.431939 " style="fill:#eee;stroke:black;stroke-width:0.010"/>
					<polygon id="bsg_Seg_A_13" points="0.456732,-0.568695 0.430676,-0.505792 0.462182,-0.52959 " style="fill:#ccc;stroke-width:0"/>
					<text id="tsg_Seg_A_13" x="0.50595565327409198" y="-0.47393406742409244" text-anchor="middle" font-size="0.040000000000000001" style="fill:darkgrey">12</text>
				</g>
				<g id="gsg_Seg_A_14">
					<polygon id="pgsg_Seg_A_14" points="0.612317,-0.431939 0.622419,-0.403704 0.629706,-0.374615 0.634106,-0.344952 0.635577,-0.315 0.634106,-0.285048 0.629706,-0.255385 0.622419,-0.226296 0.612317,-0.198061 0.507477,-0.241486 0.507477,-0.388514 " style="fill:#eee;stroke:darkgrey;stroke-width:0.005"/>
					<polyline id="plsg_Seg_A_14" points="0.612317,-0.431939 0.622419,-0.403704 0.629706,-0.374615 0.634106,-0.344952 0.635577,-0.315 0.634106,-0.285048 0.629706,-0.255385 0.622419,-0.226296 0.612317,-0.198061 " style="fill:#eee;stroke:black;stroke-width:0.010"/>
					<polygon id="bsg_Seg_A_14" points="0.599003,-0.404777 0.536099,-0.378721 0.575204,-0.373271 " style="fill:#ccc;stroke-width:0"/>
					<text id="tsg_Seg_A_14" x="0.57883887123643885" y="-0.2979784141500002" text-anchor="middle" font-size="0.040000000000000001" style="fill:darkgrey">13</text>
				</g>
				<g id="gsg_Seg_A_15">
					<polygon id="pgsg_Seg_A_15" points="0.612317,-0.198061 0.599495,-0.170952 0.584078,-0.14523 0.566215,-0.121144 0.546076,-0.0989241 0.523856,-0.0787854 0.49977,-0.0609216 0.474048,-0.0455047 0.446939,-0.0326832 0.403514,-0.137523 0.507477,-0.241486 " style="fill:#eee;stroke:darkgrey;stroke-width:0.005"/>
					<polyline id="plsg_Seg_A_15" points="0.612317,-0.198061 0.599495,-0.170952 0.584078,-0.14523 0.566215,-0.121144 0.546076,-0.0989241 0.523856,-0.0787854 0.49977,-0.0609216 0.474048,-0.0455047 0.446939,-0.0326832 " style="fill:#eee;stroke:black;stroke-width:0.010"/>
					<polygon id="bsg_Seg_A_15" points="0.583695,-0.188268 0.520792,-0.214324 0.54459,-0.182818 " style="fill:#ccc;stroke-width:0"/>
					<text id="tsg_Seg_A_15" x="0.50595565327409209" y="-0.1220227608759081" text-anchor="middle" font-size="0.040000000000000001" style="fill:darkgrey">14</text>
				</g>
				<g id="gsg_Seg_A_16">
					<polygon id="pgsg_Seg_A_16" points="0.446939,-0.0326832 0.393299,-0.0156942 0.337778,-0.00636484 0.281624,-0.00204462 0.225319,-0.000445667 0.168991,-4.17485e-05 0.112661,-3.66468e-08 0.0563303,-2.56699e-16 -3.05917e-32,-2.498e-16 -1.67297e-17,-0.094 0.410967,-0.119528 " style="fill:#eee;stroke:darkgrey;stroke-width:0.005"/>
					<polyline id="plsg_Seg_A_16" points="0.446939,-0.0326832 0.393299,-0.0156942 0.337778,-0.00636484 0.281624,-0.00204462 0.225319,-0.000445667 0.168991,-4.17485e-05 0.112661,-3.66468e-08 0.0563303,-2.56699e-16 -3.05917e-32,-2.498e-16 " style="fill:#eee;stroke:black;stroke-width:0.010"/>
					<polygon id="bsg_Seg_A_16" points="0.421267,-0.0423985 0.399684,-0.0945053 0.391998,-0.0607982 " style="fill:#ccc;stroke-width:0"/>
					<text id="tsg_Seg_A_16" x="0.22464310368949225" y="-0.033340803501309836" text-anchor="middle" font-size="0.040000000000000001" style="fill:darkgrey">15</text>
				</g>
			</g>
		</g>
		<g id="workspace">
			<g id="gws_edge_0">
				<polyline id="ews_0" points="0,0.015 -0.0253846,0.015 -0.0507692,0.015 -0.0761538,0.015 -0.101538,0.015 -0.126923,0.015 -0.152308,0.015 -0.177692,0.015 -0.203077,0.015 -0.228462,0.015 -0.253846,0.015 -0.279231,0.015 -0.304615,0.015 -0.33,0.015 -0.355385,0.015 -0.380769,0.015 -0.406154,0.015 -0.431538,0.015 -0.456923,0.015 -0.482308,0.015 -0.507692,0.015 -0.533077,0.015 -0.558462,0.015 -0.583846,0.015 -0.609231,0.015 -0.634615,0.015 -0.66,0.015 " stroke-width="0.0050000000000000001" style="stroke:pink;fill:none"/>
				<rect id="vsws_0" x="-0.0049999999999999984" y="0.0099999999999998701" width="0.01" height="0.01" style="fill:red;stroke-width:0"/>
				<rect id="vtws_0" x="-0.66500000000000004" y="0.0099999999999999985" width="0.01" height="0.01" style="fill:red;stroke-width:0"/>
			</g>
			<g id="gws_edge_1">
				<polyline id="ews_1" points="-0.66,0.015 -0.685385,0.015 -0.710769,0.015 -0.736154,0.015 -0.761538,0.015 -0.786923,0.015 -0.812308,0.015 -0.837692,0.015 -0.863077,0.015 -0.888462,0.015 -0.913846,0.015 -0.939231,0.015 -0.964615,0.015 -0.99,0.015 -1.01538,0.015 -1.04077,0.015 -1.06615,0.015 -1.09154,0.015 -1.11692,0.015 -1.14231,0.015 -1.16769,0.015 -1.19308,0.015 -1.21846,0.015 -1.24385,0.015 -1.26923,0.015 -1.29462,0.015 -1.32,0.015 " stroke-width="0.0050000000000000001" style="stroke:pink;fill:none"/>
				<rect id="vsws_1" x="-0.66500000000000004" y="0.0099999999999999985" width="0.01" height="0.01" style="fill:red;stroke-width:0"/>
				<rect id="vtws_1" x="-1.325" y="0.0099999999999999985" width="0.01" height="0.01" style="fill:red;stroke-width:0"/>
			</g>
			<g id="gws_edge_2">
				<polyline id="ews_2" points="-1.32,0.015 -1.34538,0.015 -1.37077,0.015 -1.39615,0.015 -1.42154,0.015 -1.44692,0.015 -1.47231,0.015 -1.49769,0.015 -1.52308,0.015 -1.54846,0.015 -1.57385,0.015 -1.59923,0.015 -1.62462,0.015 -1.65,0.015 -1.67538,0.015 -1.70077,0.015 -1.72615,0.015 -1.75154,0.015 -1.77692,0.015 -1.80231,0.015 -1.82769,0.015 -1.85308,0.015 -1.87846,0.015 -1.90385,0.015 -1.92923,0.015 -1.95462,0.015 -1.98,0.015 " stroke-width="0.0050000000000000001" style="stroke:pink;fill:none"/>
				<rect id="vsws_2" x="-1.325" y="0.0099999999999999985" width="0.01" height="0.01" style="fill:red;stroke-width:0"/>
				<rect id="vtws_2" x="-1.9849999999999999" y="0.0099999999999999985" width="0.01" height="0.01" style="fill:red;stroke-width:0"/>
			</g>
			<g id="gws_edge_3">
				<polyline id="ews_3" points="-1.98,0.015 -2.00625,0.015 -2.0325,0.015 -2.05875,0.015 -2.085,0.015 " stroke-width="0.0050000000000000001" style="stroke:pink;fill:none"/>
				<rect id="vsws_3" x="-1.9849999999999999" y="0.0099999999999999985" width="0.01" height="0.01" style="fill:red;stroke-width:0"/>
				<rect id="vtws_3" x="-2.0899999999999999" y="0.0099999999999999985" width="0.01" height="0.01" style="fill:red;stroke-width:0"/>
			</g>
			<g id="gws_edge_4">
				<polyline id="ews_4" points="-2.085,0.015 -2.11159,0.014998 -2.1382,0.0149785 -2.16483,0.0149062 -2.1915,0.0147224 -2.21823,0.0143393 -2.24502,0.0136353 -2.2719,0.0124499 -2.29887,0.010579 -2.3259,0.00777312 -2.35294,0.003741 -2.37988,-0.00183571 -2.40654,-0.00927109 -2.43268,-0.018825 " stroke-width="0.0050000000000000001" style="stroke:pink;fill:none"/>
				<rect id="vsws_4" x="-2.0899999999999999" y="0.0099999999999999985" width="0.01" height="0.01" style="fill:red;stroke-width:0"/>
				<rect id="vtws_4" x="-2.4376796944940082" y="-0.023825017724777398" width="0.01" height="0.01" style="fill:red;stroke-width:0"/>
			</g>
			<g id="gws_edge_5">
				<polyline id="ews_5" points="-2.43268,-0.018825 -2.45803,-0.0306443 -2.48225,-0.0446277 -2.50516,-0.0606688 -2.52658,-0.0786455 -2.54635,-0.098421 -2.56433,-0.119845 -2.58037,-0.142754 -2.59436,-0.166974 -2.60617,-0.19232 " stroke-width="0.0050000000000000001" style="stroke:pink;fill:none"/>
				<rect id="vsws_5" x="-2.4376796944940082" y="-0.023825017724777398" width="0.01" height="0.01" style="fill:red;stroke-width:0"/>
				<rect id="vtws_5" x="-2.6111749822752226" y="-0.19732030550599181" width="0.01" height="0.01" style="fill:red;stroke-width:0"/>
			</g>
			<g id="gws_edge_6">
				<polyline id="ews_6" points="-2.60617,-0.19232 -2.61574,-0.2186 -2.62298,-0.245614 -2.62783,-0.273156 -2.63027,-0.301017 -2.63027,-0.328983 -2.62783,-0.356844 -2.62298,-0.384386 -2.61574,-0.4114 -2.60617,-0.43768 " stroke-width="0.0050000000000000001" style="stroke:pink;fill:none"/>
				<rect id="vsws_6" x="-2.6111749822752226" y="-0.19732030550599181" width="0.01" height="0.01" style="fill:red;stroke-width:0"/>
				<rect id="vtws_6" x="-2.6111749822752226" y="-0.44267969449400824" width="0.01" height="0.01" style="fill:red;stroke-width:0"/>
			</g>
			<g id="gws_edge_7">
				<polyline id="ews_7" points="-2.60617,-0.43768 -2.59436,-0.463026 -2.58037,-0.487246 -2.56433,-0.510155 -2.54635,-0.531579 -2.52658,-0.551355 -2.50516,-0.569331 -2.48225,-0.585372 -2.45803,-0.599356 -2.43268,-0.611175 " stroke-width="0.0050000000000000001" style="stroke:pink;fill:none"/>
				<rect id="vsws_7" x="-2.6111749822752226" y="-0.44267969449400824" width="0.01" height="0.01" style="fill:red;stroke-width:0"/>
				<rect id="vtws_7" x="-2.4376796944940082" y="-0.61617498227522272" width="0.01" height="0.01" style="fill:red;stroke-width:0"/>
			</g>
			<g id="gws_edge_8">
				<polyline id="ews_8" points="-2.43268,-0.611175 -2.40654,-0.620729 -2.37988,-0.628164 -2.35294,-0.633741 -2.3259,-0.637773 -2.29887,-0.640579 -2.2719,-0.64245 -2.24502,-0.643635 -2.21823,-0.644339 -2.1915,-0.644722 -2.16483,-0.644906 -2.1382,-0.644978 -2.11159,-0.644998 -2.085,-0.645 " stroke-width="0.0050000000000000001" style="stroke:pink;fill:none"/>
				<rect id="vsws_8" x="-2.4376796944940082" y="-0.61617498227522272" width="0.01" height="0.01" style="fill:red;stroke-width:0"/>
				<rect id="vtws_8" x="-2.0899999999999999" y="-0.65000000000000013" width="0.01" height="0.01" style="fill:red;stroke-width:0"/>
			</g>
			<g id="gws_edge_9">
				<polyline id="ews_9" points="-2.085,-0.645 -2.05875,-0.645 -2.0325,-0.645 -2.00625,-0.645 -1.98,-0.645 " stroke-width="0.0050000000000000001" style="stroke:pink;fill:none"/>
				<rect id="vsws_9" x="-2.0899999999999999" y="-0.65000000000000013" width="0.01" height="0.01" style="fill:red;stroke-width:0"/>
				<rect id="vtws_9" x="-1.9849999999999999" y="-0.65000000000000013" width="0.01" height="0.01" style="fill:red;stroke-width:0"/>
			</g>
			<g id="gws_edge_10">
				<polyline id="ews_10" points="-1.98,-0.645 -1.95462,-0.645 -1.92923,-0.645 -1.90385,-0.645 -1.87846,-0.645 -1.85308,-0.645 -1.82769,-0.645 -1.80231,-0.645 -1.77692,-0.645 -1.75154,-0.645 -1.72615,-0.645 -1.70077,-0.645 -1.67538,-0.645 -1.65,-0.645 -1.62462,-0.645 -1.59923,-0.645 -1.57385,-0.645 -1.54846,-0.645 -1.52308,-0.645 -1.49769,-0.645 -1.47231,-0.645 -1.44692,-0.645 -1.42154,-0.645 -1.39615,-0.645 -1.37077,-0.645 -1.34538,-0.645 -1.32,-0.645 " stroke-width="0.0050000000000000001" style="stroke:pink;fill:none"/>
				<rect id="vsws_10" x="-1.9849999999999999" y="-0.65000000000000013" width="0.01" height="0.01" style="fill:red;stroke-width:0"/>
				<rect id="vtws_10" x="-1.325" y="-0.65000000000000013" width="0.01" height="0.01" style="fill:red;stroke-width:0"/>
			</g>
			<g id="gws_edge_11">
				<polyline id="ews_11" points="-1.32,-0.645 -1.29462,-0.645 -1.26923,-0.645 -1.24385,-0.645 -1.21846,-0.645 -1.19308,-0.645 -1.16769,-0.645 -1.14231,-0.645 -1.11692,-0.645 -1.09154,-0.645 -1.06615,-0.645 -1.04077,-0.645 -1.01538,-0.645 -0.99,-0.645 -0.964615,-0.645 -0.939231,-0.645 -0.913846,-0.645 -0.888462,-0.645 -0.863077,-0.645 -0.837692,-0.645 -0.812308,-0.645 -0.786923,-0.645 -0.761538,-0.645 -0.736154,-0.645 -0.710769,-0.645 -0.685385,-0.645 -0.66,-0.645 " stroke-width="0.0050000000000000001" style="stroke:pink;fill:none"/>
				<rect id="vsws_11" x="-1.325" y="-0.65000000000000013" width="0.01" height="0.01" style="fill:red;stroke-width:0"/>
				<rect id="vtws_11" x="-0.66500000000000026" y="-0.65000000000000013" width="0.01" height="0.01" style="fill:red;stroke-width:0"/>
			</g>
			<g id="gws_edge_12">
				<polyline id="ews_12" points="-0.66,-0.645 -0.634615,-0.645 -0.609231,-0.645 -0.583846,-0.645 -0.558462,-0.645 -0.533077,-0.645 -0.507692,-0.645 -0.482308,-0.645 -0.456923,-0.645 -0.431538,-0.645 -0.406154,-0.645 -0.380769,-0.645 -0.355385,-0.645 -0.33,-0.645 -0.304615,-0.645 -0.279231,-0.645 -0.253846,-0.645 -0.228462,-0.645 -0.203077,-0.645 -0.177692,-0.645 -0.152308,-0.645 -0.126923,-0.645 -0.101538,-0.645 -0.0761538,-0.645 -0.0507692,-0.645 -0.0253846,-0.645 -1.89008e-16,-0.645 " stroke-width="0.0050000000000000001" style="stroke:pink;fill:none"/>
				<rect id="vsws_12" x="-0.66500000000000026" y="-0.65000000000000013" width="0.01" height="0.01" style="fill:red;stroke-width:0"/>
				<rect id="vtws_12" x="-0.0050000000000002057" y="-0.65000000000000024" width="0.01" height="0.01" style="fill:red;stroke-width:0"/>
			</g>
			<g id="gws_edge_13">
				<polyline id="ews_13" points="-2.22877e-16,-0.645 0.02625,-0.645 0.0525,-0.645 0.07875,-0.645 0.105,-0.645 " stroke-width="0.0050000000000000001" style="stroke:pink;fill:none"/>
				<rect id="vsws_13" x="-0.0050000000000002057" y="-0.65000000000000024" width="0.01" height="0.01" style="fill:red;stroke-width:0"/>
				<rect id="vtws_13" x="0.099999999999999756" y="-0.65000000000000013" width="0.01" height="0.01" style="fill:red;stroke-width:0"/>
			</g>
			<g id="gws_edge_14">
				<polyline id="ews_14" points="0.105,-0.645 0.131592,-0.644998 0.158197,-0.644978 0.184829,-0.644906 0.2115,-0.644722 0.238227,-0.644339 0.265025,-0.643635 0.291905,-0.64245 0.318868,-0.640579 0.345896,-0.637773 0.372935,-0.633741 0.399877,-0.628164 0.426544,-0.620729 0.45268,-0.611175 " stroke-width="0.0050000000000000001" style="stroke:pink;fill:none"/>
				<rect id="vsws_14" x="0.099999999999999756" y="-0.65000000000000013" width="0.01" height="0.01" style="fill:red;stroke-width:0"/>
				<rect id="vtws_14" x="0.44767969449400807" y="-0.61617498227522283" width="0.01" height="0.01" style="fill:red;stroke-width:0"/>
			</g>
			<g id="gws_edge_15">
				<polyline id="ews_15" points="0.45268,-0.611175 0.478026,-0.599356 0.502246,-0.585372 0.525155,-0.569331 0.546579,-0.551355 0.566355,-0.531579 0.584331,-0.510155 0.600372,-0.487246 0.614356,-0.463026 0.626175,-0.43768 " stroke-width="0.0050000000000000001" style="stroke:pink;fill:none"/>
				<rect id="vsws_15" x="0.44767969449400807" y="-0.61617498227522283" width="0.01" height="0.01" style="fill:red;stroke-width:0"/>
				<rect id="vtws_15" x="0.6211749822752225" y="-0.44267969449400846" width="0.01" height="0.01" style="fill:red;stroke-width:0"/>
			</g>
			<g id="gws_edge_16">
				<polyline id="ews_16" points="0.626175,-0.43768 0.63574,-0.4114 0.642979,-0.384386 0.647835,-0.356844 0.650272,-0.328983 0.650272,-0.301017 0.647835,-0.273156 0.642979,-0.245614 0.63574,-0.2186 0.626175,-0.19232 " stroke-width="0.0050000000000000001" style="stroke:pink;fill:none"/>
				<rect id="vsws_16" x="0.6211749822752225" y="-0.44267969449400846" width="0.01" height="0.01" style="fill:red;stroke-width:0"/>
				<rect id="vtws_16" x="0.6211749822752225" y="-0.19732030550599203" width="0.01" height="0.01" style="fill:red;stroke-width:0"/>
			</g>
			<g id="gws_edge_17">
				<polyline id="ews_17" points="0.626175,-0.19232 0.614356,-0.166974 0.600372,-0.142754 0.584331,-0.119845 0.566355,-0.098421 0.546579,-0.0786455 0.525155,-0.0606688 0.502246,-0.0446277 0.478026,-0.0306443 0.45268,-0.018825 " stroke-width="0.0050000000000000001" style="stroke:pink;fill:none"/>
				<rect id="vsws_17" x="0.6211749822752225" y="-0.19732030550599203" width="0.01" height="0.01" style="fill:red;stroke-width:0"/>
				<rect id="vtws_17" x="0.44767969449400813" y="-0.023825017724777669" width="0.01" height="0.01" style="fill:red;stroke-width:0"/>
			</g>
			<g id="gws_edge_18">
				<polyline id="ews_18" points="0.45268,-0.018825 0.426544,-0.00927109 0.399877,-0.00183571 0.372935,0.003741 0.345896,0.00777312 0.318868,0.010579 0.291905,0.0124499 0.265025,0.0136353 0.238227,0.0143393 0.2115,0.0147224 0.184829,0.0149062 0.158197,0.0149785 0.131592,0.014998 0.105,0.015 " stroke-width="0.0050000000000000001" style="stroke:pink;fill:none"/>
				<rect id="vsws_18" x="0.44767969449400813" y="-0.023825017724777669" width="0.01" height="0.01" style="fill:red;stroke-width:0"/>
				<rect id="vtws_18" x="0.099999999999999978" y="0.0099999999999997313" width="0.01" height="0.01" style="fill:red;stroke-width:0"/>
			</g>
			<g id="gws_edge_19">
				<polyline id="ews_19" points="2.66964e-18,0.015 0.02625,0.015 0.0525,0.015 0.07875,0.015 0.105,0.015 " stroke-width="0.0050000000000000001" style="stroke:pink;fill:none"/>
				<rect id="vsws_19" x="-0.0049999999999999984" y="0.0099999999999998701" width="0.01" height="0.01" style="fill:red;stroke-width:0"/>
				<rect id="vtws_19" x="0.099999999999999978" y="0.0099999999999997313" width="0.01" height="0.01" style="fill:red;stroke-width:0"/>
			</g>
		</g>
		<g id="sectors">
			<g id="sc_layout">
				<g id="gsc_SectorTrackA">
					<polyline id="psc_Sector_0" points="0,0.015 -0.0250089,0.015 -0.0500178,0.015 -0.0750268,0.015 -0.100036,0.015 -0.125045,0.015 -0.150054,0.015 -0.175062,0.015 -0.200071,0.015 -0.22508,0.015 -0.250089,0.015 -0.275098,0.015 -0.300107,0.015 -0.325116,0.015 -0.350125,0.015 -0.375134,0.015 -0.400143,0.015 -0.425152,0.015 -0.450161,0.015 -0.475169,0.015 -0.500178,0.015 -0.525187,0.015 -0.550196,0.015 -0.575205,0.015 -0.600214,0.015 -0.625223,0.015 -0.650232,0.015 -0.675241,0.015 -0.70025,0.015 -0.725259,0.015 -0.750268,0.015 -0.775276,0.015 -0.800285,0.015 -0.825294,0.015 -0.850303,0.015 -0.875312,0.015 -0.900321,0.015 -0.92533,0.015 -0.950339,0.015 -0.975348,0.015 -1.00036,0.015 -1.02537,0.015 -1.05037,0.015 -1.07538,0.015 -1.10039,0.015 -1.1254,0.015 -1.15041,0.015 -1.17542,0.015 -1.20043,0.015 -1.22544,0.015 -1.25045,0.015 -1.27545,0.015 -1.30046,0.015 -1.32547,0.015 -1.35048,0.015 -1.37549,0.015 -1.4005,0.015 -1.42551,0.015 -1.45052,0.015 -1.47553,0.015 -1.50054,0.015 -1.52554,0.015 -1.55055,0.015 -1.57556,0.015 -1.60057,0.015 -1.62558,0.015 -1.65059,0.015 -1.6756,0.015 -1.70061,0.015 -1.72562,0.015 -1.75062,0.015 -1.77563,0.015 -1.80064,0.015 -1.82565,0.015 -1.85066,0.015 -1.87567,0.015 -1.90068,0.015 -1.92569,0.015 -1.9507,0.015 -1.9757,0.015 -2.00071,0.015 -2.02572,0.015 -2.05073,0.015 -2.07574,0.015 -2.10075,0.0149996 -2.12577,0.0149915 -2.15081,0.0149538 -2.17587,0.0148479 -2.20098,0.0146148 -2.22614,0.0141711 -2.25136,0.0134058 -2.27666,0.0121758 -2.30203,0.0103037 -2.32746,0.00757618 -2.35289,0.00374819 -2.37824,-0.00144595 -2.40336,-0.008269 -2.42804,-0.0169438 -2.45201,-0.0275904 -2.47503,-0.0401615 -2.49694,-0.0545723 -2.51761,-0.0707265 -2.53688,-0.088516 -2.55464,-0.107822 -2.57075,-0.128514 -2.58513,-0.150455 -2.59766,-0.173498 -2.60826,-0.197487 -2.61687,-0.222264 -2.62343,-0.247661 -2.62788,-0.273509 -2.63021,-0.299634 -2.63039,-0.325863 -2.62843,-0.352019 -2.62434,-0.377927 -2.61814,-0.403414 -2.60989,-0.428309 -2.59962,-0.452445 -2.58741,-0.475661 -2.57335,-0.497802 -2.55752,-0.518719 -2.54004,-0.538272 -2.52102,-0.556331 -2.50058,-0.572774 -2.47887,-0.587492 -2.45603,-0.600385 -2.43221,-0.611368 -2.40763,-0.620378 -2.38258,-0.627505 -2.35726,-0.632961 -2.33183,-0.637004 -2.3064,-0.639902 -2.28101,-0.641905 -2.2557,-0.643232 -2.23046,-0.644066 -2.20529,-0.644556 -2.18018,-0.644819 -2.15511,-0.644942 -2.13007,-0.644988 -2.10505,-0.644999 -2.08004,-0.645 -2.05503,-0.645 -2.03002,-0.645 -2.00501,-0.645 -1.98,-0.645 -1.95499,-0.645 -1.92998,-0.645 -1.90497,-0.645 -1.87996,-0.645 -1.85496,-0.645 -1.82995,-0.645 -1.80494,-0.645 -1.77993,-0.645 -1.75492,-0.645 -1.72991,-0.645 -1.7049,-0.645 -1.67989,-0.645 -1.65488,-0.645 -1.62988,-0.645 -1.60487,-0.645 -1.57986,-0.645 -1.55485,-0.645 -1.52984,-0.645 -1.50483,-0.645 -1.47982,-0.645 -1.45481,-0.645 -1.4298,-0.645 -1.40479,-0.645 -1.37979,-0.645 -1.35478,-0.645 -1.32977,-0.645 -1.30476,-0.645 -1.27975,-0.645 -1.25474,-0.645 -1.22973,-0.645 -1.20472,-0.645 -1.17971,-0.645 -1.15471,-0.645 -1.1297,-0.645 -1.10469,-0.645 -1.07968,-0.645 -1.05467,-0.645 -1.02966,-0.645 -1.00465,-0.645 -0.979643,-0.645 -0.954634,-0.645 -0.929625,-0.645 -0.904617,-0.645 -0.879608,-0.645 -0.854599,-0.645 -0.82959,-0.645 -0.804581,-0.645 -0.779572,-0.645 -0.754563,-0.645 -0.729554,-0.645 -0.704545,-0.645 -0.679536,-0.645 -0.654527,-0.645 -0.629518,-0.645 -0.60451,-0.645 -0.579501,-0.645 -0.554492,-0.645 -0.529483,-0.645 -0.504474,-0.645 -0.479465,-0.645 -0.454456,-0.645 -0.429447,-0.645 -0.404438,-0.645 -0.379429,-0.645 -0.35442,-0.645 -0.329411,-0.645 -0.304403,-0.645 -0.279394,-0.645 -0.254385,-0.645 -0.229376,-0.645 -0.204367,-0.645 -0.179358,-0.645 -0.154349,-0.645 -0.12934,-0.645 -0.104331,-0.645 -0.0793223,-0.645 -0.0543134,-0.645 -0.0293044,-0.645 -0.00429552,-0.645 0.0207134,-0.645 0.0457223,-0.645 0.0707312,-0.645 0.0957401,-0.645 0.12075,-0.645 0.145769,-0.644992 0.170805,-0.644954 0.19587,-0.644848 0.220976,-0.644615 0.246136,-0.644171 0.271362,-0.643406 0.296662,-0.642176 0.322035,-0.640304 0.347461,-0.637576 0.372894,-0.633748 0.398242,-0.628554 0.423359,-0.621731 0.448036,-0.613056 0.472006,-0.60241 0.495026,-0.589839 0.516942,-0.575428 0.537606,-0.559273 0.556881,-0.541484 0.574637,-0.522178 0.590755,-0.501486 0.605127,-0.479545 0.617658,-0.456502 0.628263,-0.432513 0.636871,-0.407736 0.643425,-0.382339 0.647881,-0.356491 0.650209,-0.330366 0.650393,-0.304137 0.648433,-0.277981 0.644341,-0.252073 0.638144,-0.226586 0.629885,-0.201691 0.619618,-0.177555 0.607413,-0.154339 0.59335,-0.132198 0.577525,-0.111281 0.560042,-0.0917276 0.54102,-0.0736689 0.520584,-0.0572258 0.498873,-0.0425083 0.476032,-0.029615 0.452213,-0.018632 0.427635,-0.00962206 0.402578,-0.00249508 0.377257,0.00296073 0.351831,0.00700418 0.326399,0.00990248 0.301015,0.0119054 0.275702,0.0132321 0.250463,0.0140661 0.225293,0.0145563 0.200179,0.0148189 0.175108,0.0149419 0.150067,0.014988 0.125046,0.0149992 0.100036,0.015 0.0750268,0.015 0.0500178,0.015 0.0250089,0.015 0,0.015 " stroke="orange" style="stroke-opacity:0.5;stroke-width:0.010;fill:none;marker-end:url(#secArrow-orange)"/>
					<text id="tsc_Sector_0" x="-1.98" y="-0.66500000000000015" text-anchor="middle" font-size="0.029999999999999999" style="fill:orange">0</text>
				</g>
			</g>
		</g>
		<g id="barriers">
			<g id="sg_barriers">
				<g id="sgba_0">
					<polyline points="0.009,0.024 -1e-10,0.024 -1e-10,0.006 0.0045,0.006 " stroke="lightgrey" fill="none" style="stroke-width:0.004"/>
				</g>
				<g id="sgba_1">
					<polyline points="-0.669,0.006 -0.66,0.006 -0.66,0.024 -0.6645,0.024 " stroke="lightgrey" fill="none" style="stroke-width:0.004"/>
				</g>
				<g id="sgba_2">
					<polyline points="-0.651,0.024 -0.66,0.024 -0.66,0.006 -0.6555,0.006 " stroke="lightgrey" fill="none" style="stroke-width:0.004"/>
				</g>
				<g id="sgba_3">
					<polyline points="-1.329,0.006 -1.32,0.006 -1.32,0.024 -1.3245,0.024 " stroke="lightgrey" fill="none" style="stroke-width:0.004"/>
				</g>
				<g id="sgba_4">
					<polyline points="-1.311,0.024 -1.32,0.024 -1.32,0.006 -1.3155,0.006 " stroke="lightgrey" fill="none" style="stroke-width:0.004"/>
				</g>
				<g id="sgba_5">
					<polyline points="-1.989,0.006 -1.98,0.006 -1.98,0.024 -1.9845,0.024 " stroke="lightgrey" fill="none" style="stroke-width:0.004"/>
				</g>
				<g id="sgba_6">
					<polyline points="-1.971,0.024 -1.98,0.024 -1.98,0.006 -1.9755,0.006 " stroke="lightgrey" fill="none" style="stroke-width:0.004"/>
				</g>
				<g id="sgba_7">
					<polyline points="-2.43755,-0.0305841 -2.42924,-0.0271399 -2.43612,-0.0105101 -2.44028,-0.0122322 " stroke="lightgrey" fill="none" style="stroke-width:0.004"/>
				</g>
				<g id="sgba_8">
					<polyline points="-2.42781,-0.00706595 -2.43612,-0.0105101 -2.42924,-0.0271399 -2.42508,-0.0254179 " stroke="lightgrey" fill="none" style="stroke-width:0.004"/>
				</g>
				<g id="sgba_9">
					<polyline points="-2.6013,-0.204079 -2.59786,-0.195764 -2.61449,-0.188876 -2.61621,-0.193034 " stroke="lightgrey" fill="none" style="stroke-width:0.004"/>
				</g>
				<g id="sgba_10">
					<polyline points="-2.61105,-0.180561 -2.61449,-0.188876 -2.59786,-0.195764 -2.59614,-0.191607 " stroke="lightgrey" fill="none" style="stroke-width:0.004"/>
				</g>
				<g id="sgba_11">
					<polyline points="-2.59442,-0.44255 -2.59786,-0.434236 -2.61449,-0.441124 -2.61277,-0.445281 " stroke="lightgrey" fill="none" style="stroke-width:0.004"/>
				</g>
				<g id="sgba_12">
					<polyline points="-2.61793,-0.432809 -2.61449,-0.441124 -2.59786,-0.434236 -2.59958,-0.430078 " stroke="lightgrey" fill="none" style="stroke-width:0.004"/>
				</g>
				<g id="sgba_13">
					<polyline points="-2.42092,-0.606304 -2.42924,-0.60286 -2.43612,-0.61949 -2.43197,-0.621212 " stroke="lightgrey" fill="none" style="stroke-width:0.004"/>
				</g>
				<g id="sgba_14">
					<polyline points="-2.44444,-0.616046 -2.43612,-0.61949 -2.42924,-0.60286 -2.43339,-0.601138 " stroke="lightgrey" fill="none" style="stroke-width:0.004"/>
				</g>
				<g id="sgba_15">
					<polyline points="-1.971,-0.636 -1.98,-0.636 -1.98,-0.654 -1.9755,-0.654 " stroke="lightgrey" fill="none" style="stroke-width:0.004"/>
				</g>
				<g id="sgba_16">
					<polyline points="-1.989,-0.654 -1.98,-0.654 -1.98,-0.636 -1.9845,-0.636 " stroke="lightgrey" fill="none" style="stroke-width:0.004"/>
				</g>
				<g id="sgba_17">
					<polyline points="-1.311,-0.636 -1.32,-0.636 -1.32,-0.654 -1.3155,-0.654 " stroke="lightgrey" fill="none" style="stroke-width:0.004"/>
				</g>
				<g id="sgba_18">
					<polyline points="-1.329,-0.654 -1.32,-0.654 -1.32,-0.636 -1.3245,-0.636 " stroke="lightgrey" fill="none" style="stroke-width:0.004"/>
				</g>
				<g id="sgba_19">
					<polyline points="-0.651,-0.636 -0.66,-0.636 -0.66,-0.654 -0.6555,-0.654 " stroke="lightgrey" fill="none" style="stroke-width:0.004"/>
				</g>
				<g id="sgba_20">
					<polyline points="-0.669,-0.654 -0.66,-0.654 -0.66,-0.636 -0.6645,-0.636 " stroke="lightgrey" fill="none" style="stroke-width:0.004"/>
				</g>
				<g id="sgba_21">
					<polyline points="0.009,-0.636 -1e-10,-0.636 -1e-10,-0.654 0.0045,-0.654 " stroke="lightgrey" fill="none" style="stroke-width:0.004"/>
				</g>
				<g id="sgba_22">
					<polyline points="-0.009,-0.654 9.99998e-11,-0.654 9.99998e-11,-0.636 -0.0045,-0.636 " stroke="lightgrey" fill="none" style="stroke-width:0.004"/>
				</g>
				<g id="sgba_23">
					<polyline points="0.45755,-0.599416 0.449236,-0.60286 0.456124,-0.61949 0.460281,-0.617768 " stroke="lightgrey" fill="none" style="stroke-width:0.004"/>
				</g>
				<g id="sgba_24">
					<polyline points="0.447809,-0.622934 0.456124,-0.61949 0.449236,-0.60286 0.445078,-0.604582 " stroke="lightgrey" fill="none" style="stroke-width:0.004"/>
				</g>
				<g id="sgba_25">
					<polyline points="0.621304,-0.425921 0.61786,-0.434236 0.63449,-0.441124 0.636212,-0.436966 " stroke="lightgrey" fill="none" style="stroke-width:0.004"/>
				</g>
				<g id="sgba_26">
					<polyline points="0.631046,-0.449439 0.63449,-0.441124 0.61786,-0.434236 0.616138,-0.438393 " stroke="lightgrey" fill="none" style="stroke-width:0.004"/>
				</g>
				<g id="sgba_27">
					<polyline points="0.614416,-0.18745 0.61786,-0.195764 0.63449,-0.188876 0.632768,-0.184719 " stroke="lightgrey" fill="none" style="stroke-width:0.004"/>
				</g>
				<g id="sgba_28">
					<polyline points="0.637934,-0.197191 0.63449,-0.188876 0.61786,-0.195764 0.619582,-0.199922 " stroke="lightgrey" fill="none" style="stroke-width:0.004"/>
				</g>
				<g id="sgba_29">
					<polyline points="0.440921,-0.0236958 0.449236,-0.0271399 0.456124,-0.0105101 0.451966,-0.00878803 " stroke="lightgrey" fill="none" style="stroke-width:0.004"/>
				</g>
				<g id="sgba_30">
					<polyline points="0.464439,-0.0139543 0.456124,-0.0105101 0.449236,-0.0271399 0.453393,-0.028862 " stroke="lightgrey" fill="none" style="stroke-width:0.004"/>
				</g>
				<g id="sgba_31">
					<polyline points="-0.009,0.006 1e-10,0.006 1e-10,0.024 -0.0045,0.024 " stroke="lightgrey" fill="none" style="stroke-width:0.004"/>
				</g>
			</g>
		</g>
	</g>
</svg>
